Coordinates
version=1
nRows=5
nColumns=63
inDegrees=yes

Units are S.I. units (second, meters, Newtons, ...)
If the header above contains a line with 'inDegrees', this indicates whether rotational values are in degrees (yes) or radians (no).

endheader
time	pelvis_tilt	pelvis_list	pelvis_rotation	pelvis_tx	pelvis_ty	pelvis_tz	hip_flexion_r	hip_adduction_r	hip_rotation_r	knee_angle_r	knee_angle_r_beta	ankle_angle_r	subtalar_angle_r	mtp_angle_r	hip_flexion_l	hip_adduction_l	hip_rotation_l	knee_angle_l	knee_angle_l_beta	ankle_angle_l	subtalar_angle_l	mtp_angle_l	L5_S1_Flex_Ext	L5_S1_Lat_Bending	L5_S1_axial_rotation	L4_L5_Flex_Ext	L4_L5_Lat_Bending	L4_L5_axial_rotation	L3_L4_Flex_Ext	L3_L4_Lat_Bending	L3_L4_axial_rotation	L2_L3_Flex_Ext	L2_L3_Lat_Bending	L2_L3_axial_rotation	L1_L2_Flex_Ext	L1_L2_Lat_Bending	L1_L2_axial_rotation	L1_T12_Flex_Ext	L1_T12_Lat_Bending	L1_T12_axial_rotation	Abs_r3	Abs_r2	Abs_r1	Abs_t1	Abs_t2	neck_flexion	neck_bending	neck_rotation	arm_flex_r	arm_add_r	arm_rot_r	elbow_flex_r	pro_sup_r	wrist_flex_r	wrist_dev_r	arm_flex_l	arm_add_l	arm_rot_l	elbow_flex_l	pro_sup_l	wrist_flex_l	wrist_dev_l
      7.37288136	     -5.39580647	    -17.09946059	     75.12310936	      0.21969356	      0.84070028	      0.65252360	     17.02247655	     -3.04920074	     10.04379399	      0.34646878	      0.00604702	     19.85688681	    -13.46489812	      0.00000000	     13.40458326	      0.85076139	      1.11050162	      0.40590238	      0.00708433	     10.01994867	      0.73620073	      0.00000000	      0.25644040	     -0.84762484	      1.83928774	      0.47623547	     -1.12734104	      1.95424323	      0.42130594	     -2.06091504	      1.95424323	      0.29308574	     -2.06091504	      1.60937678	      0.23813056	     -1.72847657	      1.49442129	      0.14653005	     -1.31297088	      1.37946581	      1.83172816	     -9.58850172	     10.22956665	      0.00000000	      0.00000000	     27.82565561	      1.52148270	    -42.17767516	      5.56306036	    -10.98613809	    -17.44096762	    121.82317652	     87.15233154	     -3.44121285	     17.16591310	     17.28188459	    -14.63651676	    131.39616983	      7.50196329	      7.53361438	     -7.79334015	     -3.91508434
      7.38983051	     -4.79176078	    -17.12260255	     75.83431520	      0.21856332	      0.84058019	      0.65171270	     16.77430815	     -2.70919203	     10.20926875	      0.31660612	      0.00552582	     20.51937639	    -12.24321857	      0.00000000	     13.22245504	      0.50326529	      0.71934233	      0.38737789	      0.00676102	      9.95648048	      0.72497884	      0.00000000	      0.24681915	     -0.80107950	      1.79888274	      0.45836785	     -1.06543574	      1.91131291	      0.40549918	     -1.94774470	      1.91131291	      0.28208961	     -1.94774470	      1.57402240	      0.22919626	     -1.63356132	      1.46159223	      0.14103246	     -1.24087215	      1.34916206	      1.76300452	     -9.06197156	     10.00484615	      0.00000000	      0.00000000	     27.84311537	      2.08983186	    -41.47248738	      3.97612517	     -9.98833733	    -17.30977215	    120.85594125	     86.30546335	     -4.23080315	     16.61187305	     17.09633609	    -14.56509370	    131.02037412	      7.26062426	      8.14507115	     -7.99226964	     -4.32018308
      7.40677966	     -4.15400801	    -16.85739564	     76.57827939	      0.21749642	      0.84089761	      0.65088758	     16.25372296	     -2.39550103	      9.98149076	      0.29356701	      0.00512371	     21.68825701	    -10.91199058	      0.00000000	     12.75850515	      0.16207677	      0.41851149	      0.35982358	      0.00628011	     10.57250355	      1.30658086	      0.00000000	      0.20143388	     -0.74979237	      1.69996245	      0.37408285	     -0.99722386	      1.80621010	      0.33093572	     -1.82304518	      1.80621010	      0.23021878	     -1.82304518	      1.48746714	      0.18705150	     -1.52897661	      1.38121949	      0.11509932	     -1.16142839	      1.27497184	      1.43882204	     -8.48180128	      9.45468115	      0.00000000	      0.00000000	     27.92807679	      3.58922674	    -39.13380591	      2.23181473	     -9.60950811	    -15.56106240	    119.45947379	     85.17460681	     -8.40630490	     13.11358098	     16.88583648	    -14.53529123	    131.60235886	      6.83095038	      9.31404458	     -7.62334725	     -5.05174571
      7.42372881	     -3.45673826	    -16.68297395	     77.21561662	      0.21610467	      0.84117610	      0.65011083	     15.85033328	     -1.99355972	     10.47255887	      0.28039363	      0.00489379	     22.13540709	    -10.75099070	      0.00000000	     12.40301562	     -0.25717907	     -0.34443654	      0.33585256	      0.00586173	     11.84015177	      1.80459981	      0.00000000	      0.16939680	     -0.67380740	      1.63117926	      0.31458680	     -0.89616385	      1.73312796	      0.27830201	     -1.63829532	      1.73312796	      0.19360361	     -1.63829532	      1.42728185	      0.15730187	     -1.37402806	      1.32533315	      0.09679333	     -1.04372767	      1.22338444	      1.20998442	     -7.62224411	      9.07212968	      0.00000000	      0.00000000	     27.98282858	      4.64569976	    -36.33073415	      0.29805182	     -9.27893550	    -14.54637450	    118.73196372	     82.13272519	     -9.76102480	     12.35685156	     16.70345513	    -14.20057656	    134.23265692	      6.32712886	      7.70190753	     -7.24015638	     -5.67345709
      7.44067797	     -2.96475058	    -16.62264647	     77.57682447	      0.21444368	      0.84148150	      0.64909708	     15.63797875	     -1.74864861	      8.46176650	      0.27805915	      0.00485305	     23.14391111	     -7.21526346	      0.00000000	     12.19833420	     -0.50488253	     -1.57092494	      0.31085258	      0.00542540	     12.80694075	      1.92200339	      0.00000000	      0.16790623	     -0.60767601	      1.64207376	      0.31181866	     -0.80820909	      1.74470337	      0.27585314	     -1.47750345	      1.74470337	      0.19190003	     -1.47750345	      1.43681454	      0.15591772	     -1.23917292	      1.33418493	      0.09594162	     -0.94129014	      1.23155532	      1.19933741	     -6.87415254	      9.13272161	      0.00000000	      0.00000000	     27.99990715	      5.53176622	    -33.61954501	     -1.97569097	     -9.20910499	    -13.84030004	    118.23523358	     77.64149883	     -9.73866076	     11.61560987	     16.40227506	    -13.68895741	    132.65710206	      5.87876367	     10.76958617	     -7.87257002	     -5.74800085
